18:58:01.901 [main] INFO  org.cc86.MMC.client.Main.serverDiscovery(Main.java:116) - Request packet sent to: 255.255.255.255 (DEFAULT)
18:58:01.950 [main] INFO  org.cc86.MMC.client.Main.serverDiscovery(Main.java:149) - Request packet sent to: 192.168.10.255; Interface: Realtek PCIe GBE Family Controller
18:58:01.953 [main] INFO  org.cc86.MMC.client.Main.serverDiscovery(Main.java:149) - Request packet sent to: 169.254.255.255; Interface: TAP-Windows Adapter V9
18:58:01.968 [main] INFO  org.cc86.MMC.client.Main.serverDiscovery(Main.java:153) - Done looping over all network interfaces. Now waiting for a reply!
18:58:01.969 [main] INFO  org.cc86.MMC.client.Main.serverDiscovery(Main.java:161) - Broadcast response from server: 192.168.10.228
18:58:01.970 [main] INFO  org.cc86.MMC.client.Main.main(Main.java:39) - 192.168.10.228
18:58:03.249 [[External.VNC]] INFO  - ffmpeg version N-69672-g078be09 Copyright (c) 2000-2015 the FFmpeg developers
18:58:03.251 [[External.VNC]] INFO  -   built with gcc 4.9.2 (GCC)
18:58:03.253 [[External.VNC]] INFO  -   configuration: --enable-gpl --enable-version3 --disable-w32threads --enable-avisynth --enable-bzlib --enable-fontconfig --enable-frei0r --enable-gnutls --enable-iconv --enable-libass --enable-libbluray --enable-libbs2b --enable-libcaca --enable-libfreetype --enable-libgme --enable-libgsm --enable-libilbc --enable-libmodplug --enable-libmp3lame --enable-libopencore-amrnb --enable-libopencore-amrwb --enable-libopenjpeg --enable-libopus --enable-librtmp --enable-libschroedinger --enable-libsoxr --enable-libspeex --enable-libtheora --enable-libtwolame --enable-libvidstab --enable-libvo-aacenc --enable-libvo-amrwbenc --enable-libvorbis --enable-libvpx --enable-libwavpack --enable-libwebp --enable-libx264 --enable-libx265 --enable-libxavs --enable-libxvid --enable-lzma --enable-decklink --enable-zlib
18:58:03.256 [[External.VNC]] INFO  -   libavutil      54. 18.100 / 54. 18.100
18:58:03.257 [[External.VNC]] INFO  -   libavcodec     56. 21.102 / 56. 21.102
18:58:03.257 [[External.VNC]] INFO  -   libavformat    56. 19.100 / 56. 19.100
18:58:03.258 [[External.VNC]] INFO  -   libavdevice    56.  4.100 / 56.  4.100
18:58:03.258 [[External.VNC]] INFO  -   libavfilter     5.  9.104 /  5.  9.104
18:58:03.259 [[External.VNC]] INFO  -   libswscale      3.  1.101 /  3.  1.101
18:58:03.259 [[External.VNC]] INFO  -   libswresample   1.  1.100 /  1.  1.100
18:58:03.259 [[External.VNC]] INFO  -   libpostproc    53.  3.100 / 53.  3.100
18:58:03.317 [[External.VNC]] INFO  - Input #0, dshow, from 'video=screen-capture-recorder':
18:58:03.318 [[External.VNC]] INFO  -   Duration: N/A, start: 11113.204000, bitrate: N/A
18:58:03.318 [[External.VNC]] INFO  -     Stream #0:0: Video: rawvideo, bgr0, 1920x1200, 24 tbr, 10000k tbn, 24 tbc
18:58:03.320 [[External.VNC]] INFO  - Output #0, mpegts, to 'udp://192.168.10.228:52450?pkt_size=400?buffer_size=65535':
18:58:03.320 [[External.VNC]] INFO  -   Metadata:
18:58:03.322 [[External.VNC]] INFO  -     encoder         : Lavf56.19.100
18:58:03.327 [[External.VNC]] INFO  -     Stream #0:0: Video: mpeg4, yuv420p, 1920x1200, q=2-31, 200 kb/s, 24 fps, 90k tbn, 24 tbc
18:58:03.327 [[External.VNC]] INFO  -     Metadata:
18:58:03.328 [[External.VNC]] INFO  -       encoder         : Lavc56.21.102 mpeg4
18:58:03.328 [[External.VNC]] INFO  - Stream mapping:
18:58:03.328 [[External.VNC]] INFO  -   Stream #0:0 -> #0:0 (rawvideo (native) -> mpeg4 (native))
18:58:03.329 [[External.VNC]] INFO  - Press [q] to stop, [?] for help
18:58:03.842 [[External.VNC]] INFO  - frame=    7 fps=0.0 q=20.0 size=     793kB time=00:00:00.29 bitrate=22260.9kbits/s    
18:58:04.335 [[External.VNC]] INFO  - [dshow @ 04568da0] real-time buffer [screen-capture-recorder] [video input] too full or near too full (606% of size: 3041280 [rtbufsize parameter])! frame dropped!
18:58:04.402 [[External.VNC]] INFO  - frame=   24 fps= 23 q=20.0 size=    2542kB time=00:00:01.00 bitrate=20827.4kbits/s dup=15 drop=0    
18:58:04.864 [[External.VNC]] INFO  - frame=   37 fps= 24 q=20.0 size=    3984kB time=00:00:01.54 bitrate=21171.8kbits/s dup=20 drop=0    
18:58:05.369 [[External.VNC]] INFO  - frame=   49 fps= 24 q=20.0 size=    5326kB time=00:00:02.04 bitrate=21368.8kbits/s dup=24 drop=0    
18:58:05.875 [[External.VNC]] INFO  - frame=   62 fps= 24 q=20.0 size=    6792kB time=00:00:02.58 bitrate=21537.1kbits/s dup=27 drop=0    
18:58:06.382 [[External.VNC]] INFO  - frame=   74 fps= 24 q=20.0 size=    8151kB time=00:00:03.08 bitrate=21656.6kbits/s dup=29 drop=0    
18:58:06.885 [[External.VNC]] INFO  - frame=   86 fps= 24 q=20.0 size=    9528kB time=00:00:03.58 bitrate=21781.4kbits/s dup=31 drop=0    
18:58:07.391 [[External.VNC]] INFO  - frame=   98 fps= 24 q=20.0 size=   10923kB time=00:00:04.08 bitrate=21913.6kbits/s dup=33 drop=0    
18:58:07.615 [InputCruncher] INFO  org.cc86.MMC.client.Mod_Stream.receiveMsgFromServer(Mod_Stream.java:37) - disconnect
18:58:19.614 [[External.VNC]] INFO  - ffmpeg version N-69672-g078be09 Copyright (c) 2000-2015 the FFmpeg developers
18:58:19.615 [[External.VNC]] INFO  -   built with gcc 4.9.2 (GCC)
18:58:19.615 [[External.VNC]] INFO  -   configuration: --enable-gpl --enable-version3 --disable-w32threads --enable-avisynth --enable-bzlib --enable-fontconfig --enable-frei0r --enable-gnutls --enable-iconv --enable-libass --enable-libbluray --enable-libbs2b --enable-libcaca --enable-libfreetype --enable-libgme --enable-libgsm --enable-libilbc --enable-libmodplug --enable-libmp3lame --enable-libopencore-amrnb --enable-libopencore-amrwb --enable-libopenjpeg --enable-libopus --enable-librtmp --enable-libschroedinger --enable-libsoxr --enable-libspeex --enable-libtheora --enable-libtwolame --enable-libvidstab --enable-libvo-aacenc --enable-libvo-amrwbenc --enable-libvorbis --enable-libvpx --enable-libwavpack --enable-libwebp --enable-libx264 --enable-libx265 --enable-libxavs --enable-libxvid --enable-lzma --enable-decklink --enable-zlib
18:58:19.616 [[External.VNC]] INFO  -   libavutil      54. 18.100 / 54. 18.100
18:58:19.616 [[External.VNC]] INFO  -   libavcodec     56. 21.102 / 56. 21.102
18:58:19.616 [[External.VNC]] INFO  -   libavformat    56. 19.100 / 56. 19.100
18:58:19.617 [[External.VNC]] INFO  -   libavdevice    56.  4.100 / 56.  4.100
18:58:19.617 [[External.VNC]] INFO  -   libavfilter     5.  9.104 /  5.  9.104
18:58:19.617 [[External.VNC]] INFO  -   libswscale      3.  1.101 /  3.  1.101
18:58:19.617 [[External.VNC]] INFO  -   libswresample   1.  1.100 /  1.  1.100
18:58:19.618 [[External.VNC]] INFO  -   libpostproc    53.  3.100 / 53.  3.100
18:58:19.685 [[External.VNC]] INFO  - Input #0, dshow, from 'video=screen-capture-recorder':
18:58:19.687 [[External.VNC]] INFO  -   Duration: N/A, start: 11129.580000, bitrate: N/A
18:58:19.688 [[External.VNC]] INFO  -     Stream #0:0: Video: rawvideo, bgr0, 1920x1200, 24 tbr, 10000k tbn, 24 tbc
18:58:19.699 [[External.VNC]] INFO  - Output #0, mpegts, to 'udp://192.168.10.228:52438?pkt_size=400?buffer_size=65535':
18:58:19.700 [[External.VNC]] INFO  -   Metadata:
18:58:19.700 [[External.VNC]] INFO  -     encoder         : Lavf56.19.100
18:58:19.700 [[External.VNC]] INFO  -     Stream #0:0: Video: mpeg4, yuv420p, 1920x1200, q=2-31, 200 kb/s, 24 fps, 90k tbn, 24 tbc
18:58:19.700 [[External.VNC]] INFO  -     Metadata:
18:58:19.700 [[External.VNC]] INFO  -       encoder         : Lavc56.21.102 mpeg4
18:58:19.701 [[External.VNC]] INFO  - Stream mapping:
18:58:19.701 [[External.VNC]] INFO  -   Stream #0:0 -> #0:0 (rawvideo (native) -> mpeg4 (native))
18:58:19.701 [[External.VNC]] INFO  - Press [q] to stop, [?] for help
18:58:20.205 [[External.VNC]] INFO  - frame=    7 fps=0.0 q=20.0 size=     790kB time=00:00:00.29 bitrate=22178.4kbits/s    
18:58:20.664 [[External.VNC]] INFO  - [dshow @ 045b8da0] real-time buffer [screen-capture-recorder] [video input] too full or near too full (606% of size: 3041280 [rtbufsize parameter])! frame dropped!
18:58:20.787 [[External.VNC]] INFO  -     Last message repeated 1 times
18:58:20.788 [[External.VNC]] INFO  - frame=   23 fps= 22 q=20.0 size=    2528kB time=00:00:00.95 bitrate=21609.0kbits/s dup=14 drop=0    
18:58:21.258 [[External.VNC]] INFO  - frame=   38 fps= 24 q=20.0 size=    4206kB time=00:00:01.58 bitrate=21760.2kbits/s dup=20 drop=0    
18:58:21.759 [[External.VNC]] INFO  - frame=   50 fps= 24 q=20.0 size=    5567kB time=00:00:02.08 bitrate=21889.3kbits/s dup=23 drop=0    
18:58:22.264 [[External.VNC]] INFO  - frame=   62 fps= 24 q=20.0 size=    6939kB time=00:00:02.58 bitrate=22005.8kbits/s dup=26 drop=0    
18:58:22.790 [[External.VNC]] INFO  - frame=   75 fps= 24 q=20.0 size=    8439kB time=00:00:03.12 bitrate=22122.5kbits/s dup=28 drop=0    
18:58:23.337 [[External.VNC]] INFO  - frame=   88 fps= 24 q=20.0 size=    9947kB time=00:00:03.66 bitrate=22223.2kbits/s dup=31 drop=0    
18:58:23.804 [[External.VNC]] INFO  - frame=   99 fps= 24 q=20.0 size=   11236kB time=00:00:04.12 bitrate=22315.0kbits/s dup=33 drop=0    
18:58:23.964 [InputCruncher] INFO  org.cc86.MMC.client.Mod_Stream.receiveMsgFromServer(Mod_Stream.java:37) - disconnect
